<?xml version="1.0" standalone="no"?><!DOCTYPE svg PUBLIC "-//W3C//DTD SVG 1.1//EN" "http://www.w3.org/Graphics/SVG/1.1/DTD/svg11.dtd"><svg class="icon" height="512" viewBox="0 0 1024 1024" version="1.1" xmlns="http://www.w3.org/2000/svg"><path d="M706.117093 517.662977M274.357602 276.381701c-120.451326 0-218.446197 98.973152-218.446197 220.62891 0 109.815081 156.233274 279.329846 187.132005 313.193095 30.897707 33.882692 30.897707 33.882692 62.706157-0.100284 31.253818-34.621519 187.052187-203.497741 187.052187-313.092811C492.802776 375.354853 394.809951 276.381701 274.357602 276.381701zM272.352945 606.409207c-59.523675 0-107.948571-48.423873-107.948571-107.948571 0-59.504232 48.423873-107.928105 107.948571-107.928105s107.948571 48.423873 107.948571 107.928105C380.301516 558.004777 331.87662 606.409207 272.352945 606.409207zM728.349443 480.412584c22.13309-24.518417 132.465964-144.111189 132.465964-221.723847 0-86.152149-69.396533-156.243507-154.697291-156.243507s-154.697291 70.090335-154.697291 156.243507c0 77.768201 110.639866 197.814298 132.522246 221.794455C705.823404 504.478699 705.823404 504.478699 728.349443 480.412584zM628.251677 259.716136c0-42.139749 34.293037-76.431763 76.44609-76.431763 42.153052 0 76.44609 34.293037 76.44609 76.431763 0 42.167379-34.293037 76.44609-76.44609 76.44609C662.544715 336.162226 628.251677 301.869189 628.251677 259.716136zM947.570283 671.166069c-15.70468-32.097022-48.048319-59.848063-96.131431-82.48155-42.297338-19.909445-87.240947-31.229259-110.268406-36.20355-2.738367-0.591471-5.619998-1.124614-8.40646-1.641383-17.463744-3.233648-24.930809-5.995551-28.075429-10.277064-4.361331-5.938246-10.997472-9.779737-18.365276-9.779737l-1.979074 0c-18.345834 0-29.361725 20.431332-19.222807 35.722596 4.546549 6.856152 10.613732 12.687974 18.130939 17.359366 13.566994 8.432043 28.720112 11.238972 40.896432 13.493316 2.560312 0.474814 4.979408 0.921999 7.031137 1.36509 21.056572 4.549619 62.061474 14.856359 100.111069 32.766264 37.565571 17.682731 63.080687 38.591947 73.78447 60.46921 9.05933 18.513656 8.057513 38.762839-3.060709 61.902862-1.254573 2.608407-2.923586 5.272074-4.959965 7.912204l-11.409864 14.786775-0.196475 0.257873c-11.82328 15.764032-61.658292 52.578496-140.237975 65.754586-46.747697 7.838525-97.018637 6.480598-149.406798-4.031826-57.948807-11.628852-118.598118-34.543747-180.561355-68.194148-10.94119-5.942339-24.632004-2.01182-30.853705 8.772804l-0.62831 1.089821c-6.450922 11.18269-2.475378 25.532513 8.870018 31.69384 66.147536 35.924187 131.266649 60.461023 193.863313 73.024154 33.115212 6.64535 65.566298 9.971096 97.072873 9.971096 23.732517 0 46.932915-1.888 69.467141-5.66707 40.949644-6.866385 80.0645-20.258393 113.115244-38.730093 24.90011-13.915941 46.206368-30.785144 57.042157-45.157479l11.32186-14.672164c4.049223-5.251607 7.462972-10.741645 10.144034-16.319687C962.211748 737.812979 963.193099 703.096293 947.570283 671.166069z" /></svg>